<?xml version="1.0" encoding="utf-8"?>
<!-- Generator: Adobe Illustrator 26.4.1, SVG Export Plug-In . SVG Version: 6.00 Build 0)  -->
<svg version="1.1" id="Layer_1" xmlns="http://www.w3.org/2000/svg" xmlns:xlink="http://www.w3.org/1999/xlink" x="0px" y="0px"
	 viewBox="0 0 700 700" style="enable-background:new 0 0 700 700;" xml:space="preserve">
<style type="text/css">
	.st0{fill:#662D91;}
	.st1{fill:#F7941E;}
</style>
<path class="st0" d="M38.1,147.6c-1,6.3-1.6,12.6-1.7,19v47.5l-0.7,63.4l-1.6,127.1v31.9c0.2,13,2.1,25.9,5.7,38.3
	c7.7,25,22.7,47.2,43,63.7c20.3,16.5,45.1,26.6,71.2,29c14.1,0.9,22.9,0.5,33.9,0.6h6.7l0,44.2v9.4c0.1,5.2,1,10.4,2.6,15.3
	c3.3,10.2,9.5,19.2,17.8,25.9c8.2,6.6,18.1,10.7,28.6,11.9c10.5,1.2,21.1-0.6,30.5-5.2c4.7-2.3,9.1-5.3,13-8.9l5.2-5.5l2.8-3.4
	l11.1-13.4l22.1-26.9l36.9-44.6c61.1-0.5,120.6-0.7,183.6-2c39.5-2.4,75.7-22.8,98.2-55.3c11.1-15.9,18.4-34.2,21.2-53.4
	c1.6-17.2,2-34.5,1.1-51.7l-3.5-193.8c-0.5-16.5-0.5-31.7-1.3-49.1h0c-1.1-18.4-6.3-36.3-15.2-52.5c-18-32.2-49.7-54.5-86.2-60.5
	c-12.1-1.9-21.4,3.9-21.2,9.9c0.3,6,7.8,11.3,17,13.4l2.6,0.5c20.8,4.9,39.2,16.7,52.4,33.5c13.2,16.8,20.2,37.5,20.1,58.8l-0.9,48
	l-3.5,193.1c0.4,14.9-0.4,29.8-2.3,44.5c-2.4,12.8-7.7,24.8-15.6,35.1c-15.5,20.9-39.8,33.6-65.9,34.4l-192.1-1.3
	c-7.1-0.1-13.8,3-18.3,8.4l-44.7,53l-22.4,26.9l-11.2,13.4l-2.8,3.4v0c-0.3,0.2-0.6,0.4-0.7,0.7c-2.1,1.8-5.3,1.8-7.4,0
	c-0.7-0.6-1.3-1.4-1.6-2.2c0-0.6,0-1.2,0-1.7v-77.8c0-6.6-2.6-12.9-7.3-17.6s-11-7.3-17.6-7.3h-32.3c-10.1,0-22.4,0-29.5-0.4h0
	c-16.4-1.5-31.9-7.8-44.8-18C100.4,489.1,91,475.1,86,459.3c-2.3-7.9-3.6-16-3.8-24.3v-31.8l-1.3-126.9l-0.7-63.6L79.9,181v-15.7
	c0-4.2,0.3-8.5,0.9-12.6c2.5-17,10.1-33,21.6-45.7c11.6-12.8,26.6-21.9,43.4-26.1c8.8-2,17.8-3,26.9-2.8l31.8-0.5l63.6-1.2
	l254.5-5.7c10.8,0,19.3-5.3,19.3-11.6c0-6.2-8.7-11.4-19.3-11.6h-2.8l-253.7-5.7l-63.4-1.2L171,40c-12.1-0.5-24.3,0.6-36.2,3.4
	c-24.7,5.8-47,18.8-64.3,37.4S42.1,122.6,38.1,147.6L38.1,147.6z"/>
<path class="st1" d="M511.9,250.8c1.7-0.5,3-6.8,3-14.3c0-7.5-1.3-13.8-3-14.3c-23-4.6-45.9-8.1-68.9-10.5c-2.6-23-6-46-10.6-69
	c0-1.6-6.4-2.9-13.9-2.9s-13.7,1.3-13.9,2.9v0.4c-4.3,21.4-7.5,43-10.1,64.5c-26.9-1.4-53.8-1.4-80.6,0
	c-2.6-21.7-5.8-43.4-10.2-65.1c0-1.6-6.4-2.9-13.9-2.9c-7.5,0-13.7,1.3-14,2.9v0.6c-4.6,22.9-8.1,45.8-10.6,68.8
	c-23.1,2.6-46.1,6-69.2,10.6c-1.6,0-2.9,6.5-2.9,14c0,7.5,1.3,13.6,2.9,13.9h0.5c21.5,4.4,43.1,7.6,64.5,10.1h0
	c-1.4,26.9-1.4,53.8,0,80.6c-21.6,2.6-43.3,5.9-64.9,10.2c-1.6,0-2.9,6.5-2.9,13.9c0,7.5,1.3,13.6,2.9,13.9h0.5
	c22.8,4.6,45.6,8.1,68.5,10.6c2.6,23.1,6,46.1,10.6,69.2c0,1.7,6.7,3,14.3,3c7.6,0,13.8-1.3,14.3-3v-0.4c4.3-21.5,7.4-43.1,9.9-64.5
	v0c26.9,1.4,53.8,1.4,80.6,0c2.6,21.7,5.7,43.3,10.1,64.9c0,1.7,6.7,3,14.3,3c7.6,0,13.8-1.3,14.3-3v-0.4
	c4.5-22.9,8.1-45.7,10.4-68.6c23-2.6,46-5.9,69-10.5c1.7-0.5,3-6.8,3-14.3c0-7.5-1.3-13.8-3-14.3c-21.5-4.3-43-7.4-64.5-9.9h0
	c1.4-26.9,1.4-53.8,0-80.6c21.7-2.5,43.3-5.7,65-10L511.9,250.8z M389,336.7c-23.7-1-47.3-1-70.9,0c1-23.6,1-47.3,0-71
	c23.7,1.1,47.3,1.1,71,0C388.1,289.2,388,312.9,389,336.7L389,336.7z"/>
</svg>
