<?xml version="1.0" standalone="no"?>
<!DOCTYPE svg PUBLIC "-//W3C//DTD SVG 20010904//EN"
 "http://www.w3.org/TR/2001/REC-SVG-20010904/DTD/svg10.dtd">
<svg version="1.0" xmlns="http://www.w3.org/2000/svg"
 width="1013.000000pt" height="1013.000000pt" viewBox="0 0 1013.000000 1013.000000"
 preserveAspectRatio="xMidYMid meet">
<metadata>
Created by potrace 1.14, written by Peter Selinger 2001-2017
</metadata>
<g transform="translate(0.000000,1013.000000) scale(0.100000,-0.100000)"
fill="#000000" stroke="none">
<path d="M5030 9994 c-404 -49 -692 -143 -880 -290 -30 -24 -71 -50 -90 -58
-38 -17 -99 -56 -151 -98 -19 -15 -72 -48 -119 -73 -152 -84 -314 -226 -383
-337 -60 -95 -107 -191 -117 -238 -69 -314 -97 -454 -112 -560 -5 -36 -15
-103 -23 -150 -8 -47 -17 -139 -19 -205 -3 -84 -11 -139 -26 -185 -40 -126
-50 -166 -65 -264 -9 -54 -17 -101 -19 -105 -2 -3 -7 -40 -11 -81 -3 -41 -10
-111 -15 -155 -10 -82 -5 -159 11 -202 5 -13 9 -43 9 -67 0 -67 86 -291 116
-303 9 -3 29 -30 46 -59 16 -30 51 -72 76 -94 44 -39 50 -40 92 -34 75 12 100
12 100 3 0 -5 7 -9 15 -9 8 0 15 6 15 14 0 21 19 30 55 28 21 -2 41 6 63 25
27 23 34 37 39 81 3 28 9 52 13 52 10 0 24 100 33 233 1 9 5 17 10 17 5 0 7
12 6 28 -1 15 1 41 5 57 21 89 29 114 36 110 8 -5 20 43 20 81 0 13 9 33 20
44 11 11 20 28 20 38 0 18 49 62 70 62 5 0 10 9 10 20 0 17 12 26 23 18 9 -7
37 33 38 54 1 19 3 18 9 -7 7 -27 8 -26 9 15 0 25 -3 40 -7 34 -4 -6 -16 -14
-27 -17 -19 -7 -19 -6 -2 7 9 7 17 21 17 30 0 9 4 16 8 16 4 0 9 26 10 57 1
32 8 61 15 65 9 6 9 8 0 8 -18 0 -11 39 8 45 23 8 48 47 57 92 5 23 14 38 22
38 8 0 22 7 30 15 8 9 31 17 50 19 25 2 43 12 63 37 16 19 37 34 47 34 10 0
22 9 25 20 3 11 12 20 19 20 7 0 24 21 38 48 21 40 29 47 51 44 15 -1 36 2 47
8 15 8 20 8 20 -1 0 -25 91 20 135 67 6 5 28 23 50 39 22 17 81 71 132 122 51
51 97 93 103 93 6 0 9 4 6 9 -3 5 18 23 48 40 30 17 57 38 60 48 3 10 16 23
28 29 154 79 204 107 220 124 18 19 36 23 124 24 17 1 37 6 45 12 30 24 89 43
111 35 12 -4 34 -3 48 2 27 10 90 -8 90 -26 0 -5 17 -8 38 -7 20 1 47 -1 59
-5 12 -4 25 -6 29 -5 4 1 11 -4 15 -12 6 -8 9 -9 9 -1 0 13 41 5 52 -10 9 -15
38 -17 39 -4 0 7 4 2 9 -10 9 -21 24 -24 47 -10 14 9 63 -1 63 -13 0 -5 12 -7
27 -4 14 3 29 1 32 -3 3 -4 16 -14 29 -21 16 -9 22 -9 22 0 0 6 3 9 6 5 3 -3
3 -11 -1 -17 -5 -8 -11 -8 -21 1 -11 9 -14 8 -14 -4 0 -10 7 -15 19 -12 10 2
31 -3 46 -11 16 -8 33 -13 39 -11 6 2 16 -12 21 -32 7 -23 22 -43 42 -56 25
-15 32 -27 33 -52 0 -17 4 -33 9 -35 5 -1 11 -16 13 -33 2 -16 9 -36 16 -44 7
-7 11 -20 8 -27 -3 -7 -1 -16 5 -20 6 -3 8 -12 5 -20 -3 -7 -1 -16 4 -19 4 -3
11 1 13 7 3 8 6 6 6 -4 1 -10 -3 -18 -9 -18 -5 0 -10 -7 -10 -15 0 -8 6 -12
13 -9 8 3 20 -3 28 -12 11 -14 11 -18 -6 -31 -20 -15 -19 -15 2 -10 13 3 21 0
20 -6 -1 -6 7 -16 19 -21 24 -11 59 -66 47 -75 -14 -10 -11 -41 3 -41 17 0 18
-12 2 -29 -10 -11 -10 -14 0 -18 6 -3 12 -11 12 -19 0 -9 5 -12 10 -9 6 4 10
-6 10 -24 0 -16 -5 -31 -12 -33 -7 -3 -8 -9 -3 -19 5 -8 11 -29 12 -47 1 -18
9 -39 17 -48 18 -17 22 -74 6 -74 -5 0 -10 5 -10 11 0 5 -5 7 -11 4 -6 -4 -35
-7 -65 -7 -30 -1 -54 -5 -54 -10 0 -5 -13 -14 -30 -19 -20 -7 -33 -22 -41 -44
-14 -39 -25 -45 -139 -79 -230 -67 -310 -118 -314 -198 -1 -32 1 -33 34 -32
20 1 52 13 72 26 20 14 58 31 85 38 26 7 52 17 58 21 5 5 20 9 33 9 13 0 70 9
125 21 113 23 173 20 215 -10 15 -10 58 -33 95 -51 42 -20 66 -37 63 -45 -3
-8 8 -15 31 -18 39 -7 124 -45 120 -55 -1 -4 9 -24 22 -45 12 -21 20 -44 17
-53 -3 -8 -2 -13 3 -10 24 15 60 -221 66 -444 4 -108 10 -189 17 -197 13 -16
58 -16 78 0 24 19 96 136 125 202 59 131 101 347 90 454 -8 79 -9 139 -3 281
5 104 -4 245 -27 409 -14 100 -15 135 -5 188 28 161 -4 482 -65 658 -68 198
-175 373 -307 501 -82 80 -148 124 -293 193 -75 37 -175 100 -175 111 0 4 -18
19 -40 34 -22 14 -52 45 -67 69 -35 56 -70 92 -118 122 -122 77 -152 96 -247
161 -189 129 -228 147 -413 185 -96 20 -340 33 -425 23z"/>
<path d="M4354 7571 c-42 -11 -120 -49 -134 -67 -7 -7 -18 -14 -26 -14 -7 0
-16 -9 -19 -21 -4 -11 -20 -25 -36 -31 -16 -5 -29 -15 -29 -20 0 -6 -11 -21
-25 -34 -33 -30 -36 -99 -5 -107 11 -3 20 -2 20 1 0 4 17 7 37 7 32 0 39 4 41
22 2 14 12 25 25 27 12 2 46 9 75 15 30 6 67 11 82 11 22 0 28 4 24 15 -4 8
-15 15 -25 15 -23 0 -23 3 -5 39 10 18 31 34 60 45 26 10 46 22 46 28 0 10
-65 79 -72 77 -2 -1 -17 -4 -34 -8z"/>
<path d="M4645 7421 c-85 -6 -135 -21 -135 -41 0 -12 90 -30 149 -30 27 0 65
-9 89 -20 23 -11 63 -23 89 -27 27 -3 70 -17 98 -31 27 -13 63 -27 80 -29 16
-3 31 -6 33 -8 2 -2 13 7 25 19 22 21 22 22 4 52 -13 24 -33 37 -80 54 -34 13
-64 26 -67 30 -9 12 -125 40 -161 38 -19 -1 -74 -4 -124 -7z"/>
<path d="M4391 7089 c-85 -28 -171 -85 -171 -114 0 -6 -11 -18 -25 -25 -30
-16 -52 -79 -46 -137 1 -11 68 -39 84 -35 4 1 7 -2 7 -7 0 -17 108 -6 128 12
10 9 23 17 29 17 6 0 16 7 23 15 7 8 27 17 46 21 44 8 48 16 24 42 -23 24 -26
57 -7 65 21 8 35 -5 52 -46 8 -20 25 -43 38 -52 25 -16 143 -36 165 -27 14 5
54 87 66 135 10 40 45 36 89 -13 44 -47 46 -63 10 -79 -42 -19 -13 -36 65 -36
l66 0 9 45 c5 25 12 50 16 55 4 6 4 24 0 40 -3 17 -7 26 -8 22 -1 -11 -51 43
-52 57 0 6 -24 22 -52 36 -47 23 -63 26 -167 25 -67 0 -137 -6 -168 -15 -44
-12 -55 -12 -61 -1 -14 23 -91 23 -160 0z"/>
<path d="M6045 7101 c-85 -12 -215 -87 -215 -124 0 -6 9 -21 21 -33 20 -21 20
-23 4 -54 -9 -17 -15 -41 -13 -53 3 -24 9 -25 97 -7 30 7 87 9 125 6 140 -11
227 -12 232 -4 12 20 67 7 111 -27 25 -19 52 -35 60 -35 7 0 17 -10 22 -23 10
-25 103 -57 109 -38 2 6 14 11 26 11 13 0 30 8 39 18 20 22 23 87 4 99 -6 4
-18 22 -26 38 -7 17 -17 37 -22 45 -5 8 -18 33 -29 55 -40 85 -133 127 -281
126 -35 0 -98 1 -139 3 -41 2 -97 1 -125 -3z m-27 -173 c14 -14 16 -54 2 -63
-15 -9 -58 5 -65 22 -6 17 21 53 40 53 6 0 16 -5 23 -12z m337 -17 c9 -28 -3
-46 -30 -49 -26 -2 -29 6 -19 46 8 27 40 29 49 3z"/>
<path d="M5715 5965 c-75 -39 -77 -85 -3 -85 l40 0 -6 -34 c-6 -32 -5 -35 23
-41 17 -4 36 -3 43 2 7 4 16 8 20 8 14 0 21 15 7 16 -8 0 -22 2 -32 4 -23 4
-50 38 -35 44 6 2 13 -1 17 -6 3 -5 17 -9 31 -8 22 0 25 5 28 43 2 33 -1 47
-15 58 -24 18 -81 17 -118 -1z"/>
<path d="M5148 5960 c-10 -6 -18 -21 -18 -34 0 -38 23 -50 84 -42 91 10 106
25 66 61 -23 21 -107 30 -132 15z"/>
<path d="M4985 5330 c-27 -5 -85 -13 -128 -18 -85 -11 -129 -37 -120 -71 10
-39 91 -55 100 -21 6 24 39 26 79 5 16 -8 41 -15 55 -15 53 0 91 -13 99 -34 5
-12 9 -15 9 -8 1 7 7 12 14 11 6 -2 26 0 42 4 17 3 48 9 70 12 22 2 57 8 78
11 23 4 43 1 52 -6 16 -14 104 -18 123 -6 7 4 12 18 12 32 0 13 4 24 10 24 5
0 7 7 4 15 -5 12 -24 15 -84 15 -42 0 -102 5 -131 11 -30 6 -67 13 -84 16 -16
3 -45 11 -64 19 -36 15 -60 16 -136 4z m125 -130 c0 -5 -5 -10 -11 -10 -5 0
-7 5 -4 10 3 6 8 10 11 10 2 0 4 -4 4 -10z"/>
<path d="M5829 5328 c-8 -7 -21 -13 -29 -13 -8 1 -22 -2 -31 -6 -8 -4 -43 -9
-77 -10 -60 -2 -132 -26 -114 -38 5 -3 13 -19 19 -35 5 -16 16 -30 25 -32 8
-1 31 -9 49 -18 31 -14 34 -20 33 -57 0 -35 1 -39 12 -25 9 13 13 14 17 4 4
-10 6 -10 6 0 1 6 14 12 30 12 17 0 33 5 36 10 10 16 85 61 116 70 17 5 32 4
39 -3 10 -9 11 -9 4 3 -4 8 3 6 19 -7 74 -58 183 5 142 83 -8 16 -15 25 -16
19 0 -5 -4 0 -9 11 -9 22 -8 22 -201 40 -39 4 -60 2 -70 -8z"/>
<path d="M5533 5272 c-25 -8 -18 -29 10 -29 10 0 17 8 17 19 0 10 -1 18 -2 17
-2 -1 -13 -4 -25 -7z"/>
<path d="M5980 5146 c0 -9 5 -16 10 -16 6 0 10 4 10 9 0 6 -4 13 -10 16 -5 3
-10 -1 -10 -9z"/>
<path d="M3652 5044 c-13 -25 -51 -86 -86 -134 -35 -49 -102 -153 -149 -232
-98 -165 -160 -235 -233 -260 -56 -20 -165 -87 -274 -169 -138 -103 -329 -220
-556 -339 -71 -38 -376 -170 -391 -170 -11 0 -275 -113 -373 -160 -101 -48
-333 -176 -518 -284 -64 -38 -142 -81 -172 -95 -100 -48 -229 -152 -280 -226
-30 -44 -120 -273 -120 -307 0 -26 -46 -153 -69 -191 -38 -64 -53 -158 -48
-311 2 -78 -2 -197 -9 -266 -30 -283 -44 -407 -50 -440 -4 -19 -9 -46 -10 -60
-9 -69 -56 -270 -88 -380 -23 -79 -43 -176 -51 -245 -4 -33 -11 -67 -16 -75
-12 -24 -57 -333 -63 -435 -6 -97 -14 -193 -21 -237 l-4 -28 2884 0 2885 0 -4
23 c-3 12 -8 45 -11 72 -14 108 -56 288 -80 341 -14 30 -34 85 -44 122 -10 37
-44 146 -75 242 -32 96 -66 204 -76 240 -17 60 -81 249 -160 475 -80 225 -153
439 -185 535 -34 104 -173 509 -215 625 -38 104 -92 218 -131 275 -21 30 -55
84 -75 120 -20 36 -51 90 -69 120 -18 30 -61 109 -95 175 -60 116 -132 243
-190 335 -16 25 -49 79 -74 120 -72 117 -183 292 -203 320 -31 43 -116 181
-176 287 -93 162 -145 303 -112 303 22 0 25 14 14 54 -6 23 -19 41 -35 48 -13
6 -24 16 -24 21 0 5 -9 18 -21 28 -11 10 -18 22 -15 28 3 5 -5 22 -18 38 -14
16 -33 54 -44 84 -10 30 -25 55 -33 57 -9 2 -23 -15 -37 -44z"/>
<path d="M4129 4809 c-1 -24 -3 -27 -6 -11 -4 19 -6 20 -19 8 -23 -23 -17 -61
11 -74 17 -8 25 -20 25 -36 0 -13 7 -26 15 -30 9 -3 15 -18 15 -35 0 -16 5
-33 10 -36 6 -4 8 -11 5 -16 -4 -5 1 -9 9 -9 8 0 20 -9 26 -20 6 -11 17 -20
25 -20 8 0 15 -5 15 -11 0 -5 -4 -7 -10 -4 -5 3 -10 1 -10 -4 0 -6 6 -12 13
-12 43 -4 77 -21 77 -38 0 -11 8 -17 25 -17 14 0 25 4 25 10 0 5 10 1 23 -10
48 -42 83 -60 117 -59 34 0 62 -17 73 -46 3 -8 6 -3 7 11 l2 25 10 -27 c5 -16
16 -28 24 -28 8 0 14 -5 14 -11 0 -5 5 -7 10 -4 6 3 10 0 10 -7 0 -8 3 -9 8
-3 17 23 68 15 75 -13 3 -12 5 -11 6 6 1 31 31 29 31 -3 0 -17 7 -28 23 -34
12 -5 25 -7 28 -5 3 2 11 -7 17 -20 6 -13 21 -26 34 -29 13 -3 43 -11 68 -17
83 -21 74 -20 261 -35 51 -4 212 7 299 21 14 2 40 6 59 9 19 3 42 11 50 19 9
7 28 16 43 20 22 5 26 3 22 -9 -7 -18 0 -19 18 -2 12 11 50 31 73 37 6 1 16
11 23 21 7 11 21 19 31 19 10 0 34 26 59 64 24 35 51 71 62 81 11 10 20 22 20
27 0 16 -30 8 -42 -11 -9 -15 -17 -17 -36 -10 -18 7 -30 4 -52 -11 -15 -11
-39 -20 -53 -20 -14 0 -37 -4 -51 -10 -20 -7 -26 -6 -29 8 -4 14 -5 13 -6 -3
-1 -16 -8 -20 -34 -19 -17 0 -41 4 -51 9 -14 6 -23 3 -35 -11 -11 -13 -31 -20
-61 -22 -55 -3 -80 -7 -100 -14 -71 -27 -179 -31 -310 -12 -25 4 -61 6 -81 5
-21 -1 -40 2 -44 8 -3 6 -15 11 -26 11 -11 0 -33 7 -50 15 -22 12 -34 13 -50
5 -16 -9 -24 -8 -37 7 -21 23 -75 58 -84 55 -5 -1 -8 5 -8 13 0 8 -15 21 -32
29 -42 19 -68 40 -68 55 0 11 -14 15 -35 11 -5 -1 -7 2 -2 6 4 4 -1 16 -10 27
-13 15 -14 18 -3 12 13 -8 13 -6 2 8 -8 9 -22 19 -33 22 -10 4 -19 14 -19 22
0 9 -3 14 -6 10 -4 -3 -12 -1 -19 6 -30 28 -56 47 -65 47 -6 0 -10 7 -10 15 0
10 -10 15 -29 15 -22 0 -36 8 -51 31 -12 16 -28 28 -35 25 -7 -2 -16 2 -19 10
-3 9 -10 13 -15 10 -5 -4 -11 -1 -13 4 -5 16 -58 23 -58 8 0 -10 -2 -10 -8 -1
-4 6 -24 14 -45 18 -37 7 -37 7 -38 -26z m731 -533 c0 -3 -4 -8 -10 -11 -5 -3
-10 -1 -10 4 0 6 5 11 10 11 6 0 10 -2 10 -4z"/>
<path d="M3901 4744 c0 -11 8 -29 19 -39 19 -18 20 -17 20 3 0 12 -6 22 -14
22 -8 0 -17 8 -19 18 -4 14 -5 13 -6 -4z"/>
<path d="M3950 4670 c0 -5 5 -10 11 -10 5 0 7 5 4 10 -3 6 -8 10 -11 10 -2 0
-4 -4 -4 -10z"/>
<path d="M4025 4630 c3 -5 8 -10 11 -10 2 0 4 5 4 10 0 6 -5 10 -11 10 -5 0
-7 -4 -4 -10z"/>
<path d="M4090 4580 c0 -5 5 -10 11 -10 5 0 7 5 4 10 -3 6 -8 10 -11 10 -2 0
-4 -4 -4 -10z"/>
<path d="M6103 4413 c-3 -10 -22 -33 -42 -51 -20 -18 -30 -31 -23 -27 7 3 12
0 12 -8 0 -10 -7 -13 -20 -10 -18 5 -20 0 -20 -40 0 -25 -4 -47 -9 -49 -5 -1
-20 -21 -35 -42 -14 -21 -26 -35 -26 -30 0 18 -44 -62 -48 -86 -2 -13 -7 -27
-11 -30 -5 -3 -11 -18 -14 -35 -26 -140 -64 -232 -104 -258 -14 -9 -35 -29
-95 -96 -26 -28 -43 -39 -55 -34 -11 5 -14 3 -8 -6 4 -7 4 -16 -1 -20 -5 -3
-14 -16 -21 -28 -11 -19 -9 -24 25 -43 l37 -22 103 108 c57 60 110 123 119
139 8 17 43 68 77 115 34 47 69 97 79 112 52 83 128 348 119 421 -4 39 -28 51
-39 20z"/>
<path d="M6190 4382 c0 -22 9 -59 20 -83 11 -26 20 -66 20 -98 0 -86 -20 -280
-37 -356 -25 -110 -43 -217 -43 -257 0 -20 18 -92 41 -159 43 -129 70 -287 89
-511 6 -67 15 -157 20 -198 5 -41 14 -109 19 -150 14 -114 20 -206 26 -430 3
-113 12 -297 20 -410 8 -113 17 -338 20 -500 3 -162 10 -358 15 -435 6 -77 12
-241 15 -365 3 -124 12 -270 20 -324 8 -55 15 -101 15 -103 0 -2 704 -3 1565
-3 l1564 0 -28 78 c-55 148 -115 280 -271 594 -107 214 -132 276 -145 352 -4
21 -21 84 -39 140 -63 195 -67 213 -72 343 -6 163 -21 350 -29 363 -3 5 -10
85 -16 177 -12 202 -40 403 -69 498 -30 96 -75 166 -168 260 -411 415 -557
523 -977 727 -151 74 -148 73 -630 173 -148 30 -308 66 -355 80 -47 14 -114
32 -150 40 -114 27 -210 88 -245 154 -7 14 -27 76 -44 136 -33 114 -116 297
-138 303 -9 3 -13 -9 -13 -36z"/>
<path d="M5778 3336 c-23 -17 -23 -33 2 -46 14 -7 20 -21 20 -44 0 -20 11 -51
27 -75 25 -39 29 -41 75 -41 27 0 58 5 69 10 23 13 26 62 4 80 -8 7 -15 18
-15 25 0 11 -31 45 -79 85 -27 23 -78 26 -103 6z"/>
<path d="M5239 3117 c-78 -35 -124 -183 -73 -234 9 -10 13 -5 19 23 3 19 25
74 48 122 23 48 43 90 45 95 5 10 -9 8 -39 -6z"/>
</g>
</svg>
