<?xml version="1.0" encoding="UTF-8" standalone="no"?>
<!-- Created with Inkscape (http://www.inkscape.org/) -->
<svg id="svg4180" xmlns:rdf="http://www.w3.org/1999/02/22-rdf-syntax-ns#" xmlns="http://www.w3.org/2000/svg" xml:space="preserve" height="1026.862" viewBox="0 0 872.84985 1026.8624" width="872.8498" version="1.1" xmlns:cc="http://creativecommons.org/ns#" xmlns:dc="http://purl.org/dc/elements/1.1/"><metadata id="metadata4186"><rdf:RDF><cc:Work rdf:about=""><dc:format>image/svg+xml</dc:format><dc:type rdf:resource="http://purl.org/dc/dcmitype/StillImage"/><dc:title/></cc:Work></rdf:RDF></metadata><g id="g4188" transform="matrix(1.25 0 0 -1.25 -21.62012 1076.732)"><g id="g4190" transform="scale(.1)"><g fill="#7ab800"><path id="path4192" d="m5162.36 6806.16-78.47 59.71c13.88 17.02 1114.27 1492.46 1114.27 1492.46l79.39-59.33c-11.11-14.86-1110.8-1486.94-1115.19-1492.84"/><path id="path4194" d="m5006.21 6917.67-84.4 51.96 342.58 556.41 84.39-51.98-342.57-556.39"/><path id="path4196" d="m4840.75 7014.77-88.74 44.17 373.08 749.09 88.72-44.18-373.06-749.08"/><path id="path4198" d="m4667.23 7096.64-92.32 36.04 344.24 881.44 92.31-36.04-344.23-881.44"/><path id="path4200" d="m4487.05 7162.62-95.18 27.62 366.89 1263.62 95.18-27.63-366.89-1263.61"/><path id="path4202" d="m4301.69 7212.18-97.27 18.99 174.78 895.26 97.27-19-174.78-895.25"/><path id="path4204" d="m4112.68 7244.94-98.58 10.22 86.03 832.14 98.58-10.21-86.03-832.15"/><path id="path4206" d="m3921.44 7260.63-99.1 1.33 8.24 620.42 99.1-1.32-8.24-620.43"/><path id="path4208" d="m3630.78 7251.52-71.64 934.67 98.8 7.58 71.64-934.66-98.8-7.59"/><path id="path4210" d="m3440.91 7224.01-119.78 713.86 97.73 16.41 119.79-713.87-97.74-16.4"/><path id="path4212" d="m3254.21 7179.59-162.43 620.66 95.87 25.09 162.44-620.66-95.88-25.09"/><path id="path4214" d="m3072.33 7118.57-296.28 822.54 93.25 33.59 296.27-822.53-93.24-33.6"/><path id="path4216" d="m2896.67 7041.51-181.47 389.95 89.85 41.83 181.47-389.96-89.85-41.82"/><path id="path4218" d="m2728.56 6949.02-275.56 475.47 85.75 49.7 275.55-475.49-85.74-49.68"/><path id="path4220" d="m2569.44 6841.79-97.3 137.73 80.96 57.19 97.29-137.74-80.95-57.18"/><path id="path4222" d="m2420.54 6720.78-548.63 645.09 75.49 64.2 548.64-645.1-75.5-64.19"/><path id="path4224" d="m2283.13 6586.89-492.2 483.26 69.45 70.71 492.18-483.26-69.43-70.71"/><path id="path4226" d="m2158.28 6441.2-749.1 613.85 62.82 76.66 749.09-613.85-62.81-76.66"/><path id="path4228" d="m2046.95 6284.96-690.86 469.32 55.69 81.99 690.85-469.33-55.68-81.98"/><path id="path4230" d="m1950.1 6119.33-1301.842 723.03 48.125 86.65 1301.837-723.04-48.12-86.64"/><path id="path4232" d="m1868.47 5945.7-479.63 212.58 40.17 90.62 479.61-212.58-40.15-90.62"/><path id="path4234" d="m1802.75 5765.43-1243.027 422.24 31.863 93.83 1243.044-422.22-31.88-93.85"/><path id="path4236" d="m332.961 5924.17 1420.509-344.11 23.31 96.32-1420.491 344.11-23.328-96.32"/><path id="path4238" d="m1720.98 5390.94-578.55 86.22 14.61 98.01 578.54-86.22-14.6-98.01"/><path id="path4240" d="m1705.59 5199.71-1059.805 61.7 5.762 98.94 1059.803-61.7-5.76-98.94"/><path id="path4242" d="m898.59 4982.29-3.125 99.06 808.785 25.56 3.13-99.06-808.79-25.56"/><path id="path4244" d="m699.234 4691.68-11.992 98.37 1027.148 125.28 12-98.39-1027.156-125.26"/><path id="path4246" d="m1149.99 4497.25-20.78 96.91 612.45 131.25 20.76-96.89-612.43-131.27"/><path id="path4248" d="m1585.38 4372.74-29.38 94.67 229.83 71.29 29.37-94.67-229.82-71.29"/><path id="path4250" d="m1187.55 3978.15-37.74 91.64 696.75 286.93 37.73-91.65-696.74-286.92"/><path id="path4252" d="m1197.07 3690.63-45.82 87.89 772.08 402.36 45.82-87.87-772.08-402.38"/><path id="path4254" d="m1202.49 3373.54-53.49 83.42 866.62 555.7 53.5-83.44-866.63-555.68"/><path id="path4256" d="m1441.76 3199.64-60.77 78.29 741.58 575.44 60.76-78.3-741.57-575.43"/><path id="path4258" d="m1661.83 3027.49-67.53 72.53 649.09 604.31 67.53-72.53-649.09-604.31"/><path id="path4260" d="m1839.74 2819.5-73.77 66.21 611.11 680.98 73.75-66.21-611.09-680.98"/><path id="path4262" d="m2103.78 2715.44-79.38 59.32 498.15 666.84 79.39-59.32-498.16-666.84"/><path id="path4264" d="m2541.66 2918.46-84.4 51.94 221.39 359.66 84.39-51.94-221.38-359.66"/><path id="path4266" d="m2439.5 2198.18-88.72 44.17 493.36 990.59 88.71-44.18-493.35-990.58"/><path id="path4268" d="m2810.85 2349.09-92.31 36.05 299.1 765.94 92.31-36.04-299.1-765.95"/><path id="path4270" d="m3146.47 2552.89-95.17 27.65 146.51 504.53 95.16-27.64-146.5-504.54"/><path id="path4272" d="m3335.8 2275.84-97.26 18.98 144.58 740.68 97.27-19-144.59-740.66"/><path id="path4274" d="m3591.82 2229.15-98.58 10.22 78.91 763.38 98.59-10.2-78.92-763.4"/><path id="path4276" d="m3855.53 2460.88-99.1 1.34 6.96 524.86 99.12-1.32-6.98-524.88"/><path id="path4278" d="m4018.41 2164.58-63.14 824.01 98.81 7.58 63.16-824-98.83-7.59"/><path id="path4280" d="m4314.17 2006.41-167.96 1000.87 97.74 16.4 167.95-1000.87-97.73-16.4"/><path id="path4282" d="m4683.66 1710-348.94 1333.07 95.87 25.07 348.93-1333.04-95.86-25.1"/><path id="path4284" d="m4727.08 2518.74-207.83 576.8 93.23 33.58 207.83-576.79-93.23-33.59"/><path id="path4286" d="m5049.22 2410.36-350.86 754.01 89.87 41.81 350.86-754.01-89.87-41.81"/><path id="path4288" d="m5688.83 1837.27-818.29 1411.72 85.74 49.69 818.3-1411.73-85.75-49.68"/><path id="path4290" d="m5563.14 2600.41-528.65 748.27 80.93 57.18 528.65-748.26-80.93-57.19"/><path id="path4292" d="m5240.77 3400.88-51.97 61.81 75.5 64.19 51.95-61.8-75.48-64.2"/><path id="path4294" d="m5952.91 2980.74-620.6 609.31 69.42 70.71 620.61-609.32-69.43-70.7"/><path id="path4296" d="m5987.04 3301.03-523.27 428.74 62.82 76.67 523.25-428.76-62.8-76.65"/><path id="path4298" d="m6258.93 3421.06-676.72 459.67 55.69 81.98 676.71-459.66-55.68-81.99"/><path id="path4300" d="m6221.16 3744.85-534.51 296.83 48.12 86.66 534.5-296.84-48.11-86.65"/><path id="path4302" d="m6830.65 3744.08-1054.41 467.29 40.14 90.6 1054.41-467.27-40.14-90.62"/><path id="path4304" d="m6108.37 4300.73-258.13 87.64 31.84 93.85 258.17-87.65-31.88-93.84"/><path id="path4306" d="m6911.19 4328.34s-974.5 236.36-1003.19 243.53l23.48 95.77c5.49-1.34 1003.06-242.97 1003.06-242.97l-23.35-96.33"/><path id="path4308" d="m6758.11 4638.23-808.8 120.49 14.6 98.01 808.79-120.48-14.59-98.02"/><path id="path4310" d="m6670.59 4908.46-697.04 40.59 5.75 98.95 697.05-40.59-5.76-98.95"/><path id="path4312" d="m5980.66 5140.78-3.14 99.05 519.01 16.43 3.15-99.07-519.02-16.41"/><path id="path4314" d="m5970.53 5332.39-11.99 98.38 447.18 54.56 12.01-98.37-447.2-54.57"/><path id="path4316" d="m5943.27 5522.3-20.77 96.91 641.75 137.6 20.78-96.92-641.76-137.59"/><path id="path4318" d="m5899.09 5709-29.39 94.64 296.35 92 29.37-94.65-296.33-91.99"/><path id="path4320" d="m5838.38 5891.04-37.73 91.64 413.98 170.48 37.74-91.63-413.99-170.49"/><path id="path4322" d="m5761.58 6066.85-45.81 87.89 903.1 470.66 45.8-87.87-903.09-470.68"/><path id="path4324" d="m5669.31 6235.08-53.48 83.41 1095.91 702.77 53.5-83.42-1095.93-702.76"/><path id="path4326" d="m5562.35 6394.36-60.76 78.29 234.24 181.76 60.76-78.31-234.24-181.74"/><path id="path4328" d="m5441.69 6543.57-66.79 73.25c15.88 14.44 164.7 153.32 164.7 153.32l67.52-72.55s-161.94-150.74-165.43-154.02"/><path id="path4330" d="m5307.85 6681.04-73.77 66.2 1121.45 1249.8 73.77-66.2-1121.45-1249.8"/></g><g fill="#f00"><path id="path4332" d="m4628.75 6132.42-39.68 29.67 22.4 30 39.7-29.68-22.42-29.99"/><path id="path4334" d="m4365 5922.61-42.19 25.97 189.69 308.13 42.19-25.99l-189.69-308.11"/><path id="path4336" d="m4310.11 6004.24-44.36 22.08 142.36 285.83 44.37-22.1-142.37-285.81"/><path id="path4338" d="m4238.16 6065.49-46.16 18.01 107.18 274.52 46.17-18.01-107.19-274.52"/><path id="path4340" d="m4182.86 6203.29-47.6 13.82 51.36 176.85 47.58-13.81-51.34-176.86"/><path id="path4342" d="m4062.79 6117.69-48.64 9.49 57.1 292.48 48.64-9.48-57.1-292.49"/><path id="path4344" d="m3970.73 6114.21-49.29 5.11 32.61 315.62 49.28-5.1-32.6-315.63"/><path id="path4346" d="m3880.47 6062.32-49.56 0.66 5.05 376.65 49.54-0.67-5.03-376.64"/><path id="path4348" d="m3740.29 6141.62-22.39 292.09 49.42 3.78 22.37-292.09-49.4-3.78"/><path id="path4350" d="m3658.07 6076.02-57.23 341.2 48.87 8.21 57.23-341.22-48.87-8.19"/><path id="path4352" d="m3579.72 6031.39-93.95 358.93 47.94 12.55 93.95-358.93-47.94-12.55"/><path id="path4354" d="m3475.7 6069.69-102.14 283.52 46.61 16.79 102.14-283.54-46.61-16.77"/><path id="path4356" d="m3447.32 5914.65-182.22 391.55 44.92 20.91 182.23-391.55-44.93-20.91"/><path id="path4358" d="m3364.84 5898.54-203.53 351.11 42.89 24.84 203.52-351.12-42.88-24.83"/><path id="path4360" d="m3357.71 5766.91-294.71 417.12 40.48 28.61 294.7-417.11-40.47-28.62"/><path id="path4362" d="m3174.69 5870.37-203.67 239.49 37.73 32.1 203.71-239.47-37.77-32.12"/><path id="path4364" d="m3143.49 5774.92-257.46 252.82 34.71 35.37 257.48-252.81-34.73-35.38"/><path id="path4366" d="m3030.97 5756.23-222.24 182.11 31.4 38.33 222.26-182.1-31.42-38.34"/><path id="path4368" d="m3005.59 5661.75-265.84 180.61 27.85 40.99 265.84-180.61-27.85-40.99"/><path id="path4370" d="m2803.95 5671.57-124.3 69.03 24.07 43.32 124.29-69.03-24.06-43.32"/><path id="path4372" d="m3007.82 5465.95-378.89 167.9 20.07 45.3 378.89-167.92-20.07-45.28"/><path id="path4374" d="m2770.56 5460.99-182.58 61.99 15.93 46.91 182.58-62.01-15.93-46.89"/><path id="path4376" d="m2701.86 5373.83s-140.93 34.16-144.53 35.02l11.58 48.17c15.67-4.01 144.63-35.03 144.63-35.03l-11.68-48.16"/><path id="path4378" d="m2930.54 5233.83-393.92 58.68 7.31 49.01 393.91-58.69-7.3-49"/><path id="path4380" d="m2788.49 5159.5-261.87 15.24 2.88 49.46 261.87-15.24-2.88-49.46"/><path id="path4382" d="m2527.23 5056.55-1.55 49.53 328.69 10.39 1.56-49.54-328.7-10.38"/><path id="path4384" d="m2538.42 4938.91-5.99 49.19 268.53 32.73 6-49.18-268.54-32.74"/><path id="path4386" d="m2560.12 4822.71-10.38 48.46 371.26 79.57 10.38-48.46-371.26-79.57"/><path id="path4388" d="m2592.18 4708.96-14.69 47.33 463.55 143.83 14.7-47.33-463.56-143.83"/><path id="path4390" d="m2634.27 4598.52-18.86 45.82 319.73 131.67 18.87-45.81-319.74-131.68"/><path id="path4392" d="m2686.12 4492.29-22.9 43.96 278.84 145.32 22.91-43.96-278.85-145.32"/><path id="path4394" d="m2747.24 4391.14-26.76 41.72 226.15 145 26.74-41.71-226.13-145.01"/><path id="path4396" d="m2817.21 4295.9-30.38 39.15 235.3 182.6 30.38-39.15-235.3-182.6"/><path id="path4398" d="m2895.42 4207.3-33.76 36.29 229.16 213.31 33.76-36.28-229.16-213.32"/><path id="path4400" d="m2981.26 4126.07-36.88 33.1 205.52 229.01 36.89-33.07-205.53-229.04"/><path id="path4402" d="m3074.04 4052.86-39.72 29.65 193.72 259.31 39.69-29.65-193.69-259.31"/><path id="path4404" d="m3173 3988.26-42.2 25.99 226.16 367.29 42.21-25.98-226.17-367.3"/><path id="path4406" d="m3277.36 3932.79-44.37 22.09 111.84 224.54 44.35-22.09-111.82-224.54"/><path id="path4408" d="m3386.29 3886.88-46.15 18.04 118.18 302.58 46.16-18.03-118.19-302.59"/><path id="path4410" d="m3498.87 3850.94-47.6 13.82 114.75 395.19 47.6-13.81-114.75-395.2"/><path id="path4412" d="m3614.21 3825.22-48.64 9.5 67.93 347.7 48.64-9.5-67.93-347.7"/><path id="path4414" d="m3731.42 3809.98-49.27 5.1 35.55 343.3 49.27-5.1-35.55-343.3"/><path id="path4416" d="m3849.56 3805.29-49.56 0.67 5.52 413.81 49.55-0.67-5.51-413.81"/><path id="path4418" d="m3918.18 3807.43-24.93 325.64 49.41 3.77 24.94-325.64-49.42-3.77"/><path id="path4420" d="m4035.76 3819.48-44.82 267.29 48.88 8.21 44.81-267.31-48.87-8.19"/><path id="path4422" d="m4151.77 3842.01-46.35 177.15 47.95 12.55 46.34-177.15-47.94-12.55"/><path id="path4424" d="m4265.33 3874.89-128.67 357.27 46.62 16.77 128.66-357.25-46.61-16.79"/><path id="path4426" d="m4375.44 3917.75-134.61 289.38 44.92 20.92 134.64-289.39-44.95-20.91"/><path id="path4428" d="m4481.27 3970.38-49.68 85.74 42.87 24.84 49.71-85.74-42.9-24.84"/><path id="path4430" d="m4581.98 4032.26-170.88 241.96 40.46 28.57 170.9-241.96-40.48-28.57"/><path id="path4432" d="m4676.72 4102.91-345.2 405.95 37.75 32.1 345.22-405.94-37.77-32.11"/><path id="path4434" d="m4764.78 4181.79-218.69 214.71 34.74 35.37 218.68-214.73-34.73-35.35"/><path id="path4436" d="m4845.39 4268.2-279.42 228.99 31.41 38.33 279.42-228.99-31.41-38.33"/><path id="path4438" d="m4917.92 4361.53-263.14 178.77 27.85 40.99 263.15-178.75-27.86-41.01"/><path id="path4440" d="m4981.78 4460.97-332.75 184.83 24.07 43.32 332.75-184.84-24.07-43.31"/><path id="path4442" d="m5036.52 4565.71-216.95 96.16 20.07 45.31 216.96-96.16-20.08-45.31"/><path id="path4444" d="m5081.61 4674.96-454.87 154.58 15.95 46.92 454.85-154.59-15.93-46.91"/><path id="path4446" d="m5116.73 4787.81-255.69 61.98 11.69 48.18 255.69-62-11.69-48.16"/><path id="path4448" d="m5141.59 4903.34-317.13 47.33 7.32 49.01 317.11-47.34-7.3-49"/><path id="path4450" d="m5156.02 5020.68-348.95 20.34 2.9 49.45 348.93-20.33-2.88-49.46"/><path id="path4452" d="m4752.04 5125.97-1.55 49.53 407.8 12.81 1.54-49.52-407.79-12.82"/><path id="path4454" d="m4734.26 5205.78-5.99 49.19 418.82 51.02 6-49.21-418.83-51"/><path id="path4456" d="m4772.38 5295.89-10.38 48.47 363.39 77.79 10.38-48.47-363.39-77.79"/><path id="path4458" d="m4666.85 5351.75-14.69 47.32 441.18 136.85 14.69-47.34-441.18-136.83"/><path id="path4460" d="m4677.08 5438.74-18.86 45.83 393.05 161.8 18.86-45.83-393.05-161.8"/><path id="path4462" d="m5010.87 5730.61 11.35-22.03c-3.08-1.58-241.62-125.86-241.62-125.86l-22.87 43.96 241.5 125.28 11.64-21.35"/><path id="path4464" d="m4809.4 5712.25-26.74 41.71 155.66 99.76 26.73-41.71-155.65-99.76"/><path id="path4466" d="m4522.9 5618.29-30.39 39.15 375.82 291.56 30.39-39.14-375.82-291.57"/><path id="path4468" d="m4467.23 5669.39-33.78 36.28 356.65 331.94 33.77-36.27-356.64-331.95"/><path id="path4470" d="m4686.01 6024.33-36.87 33.1 55.16 61.43 36.87-33.12-55.16-61.41"/></g><g fill="#7ab800"><path id="path4472" d="m756.227 869.141c-66.641 0-105.606-45.121-105.606-119.2 0-74.851 38.965-119.203 105.606-119.203 66.14 0 105.105 44.352 105.105 119.203 0 74.079-38.965 119.2-105.105 119.2zm0-310.18c-116.379 0-194.309 83.059-194.309 190.98 0 107.93 77.93 190.719 194.309 190.719 116.132 0 193.808-83.308 193.808-190.719 0-107.921-77.676-190.98-193.808-190.98"/><path id="path4474" d="m1190.41 753.281h45.11c45.12 0 63.58 22.559 63.58 61.258 0 34.09-20 57.172-63.58 57.172h-45.11v-118.43zm0-65.371v-124.84h-86.66v373.489h131.77c105.1 0 150.22-53.059 150.22-122.02 0-74.598-46.92-126.629-150.22-126.629h-45.11"/><path id="path4476" d="m1784.02 936.559v-66.649h-153.29v-87.16h117.41v-64.078h-117.41v-88.953h153.29v-66.649h-240.45v373.489h240.45"/><path id="path4478" d="m2040.31 923.23 177.38-224.3c-1.28 14.351-2.05 27.941-2.05 40v197.629h76.4v-373.489h-45.12c-13.33 0-21.79 3.332-30.25 14.352l-176.11 222.508c1.03-13.071 1.8-25.629 1.8-36.66v-200.2h-76.4v373.489h45.64c14.86 0 19.22-1.789 28.71-13.329"/><path id="path4480" d="m2856.89 785.32h13.85c12.81 0 22.05 4.102 27.68 12.039l84.08 122.032c9.23 13.32 20.26 17.168 37.44 17.168h75.36l-110.74-150.977c-7.95-11.031-16.41-17.691-25.39-22.562 13.08-4.879 23.59-12.559 32.56-26.661l112.8-173.289h-77.43c-19.73 0-26.91 5.641-33.82 15.891l-84.6 129.969c-6.16 9.492-14.61 13.07-30.76 13.07h-21.03v-158.93h-86.64v373.489h86.64v-151.239"/><path id="path4482" d="m3343.35 923.23 177.41-224.3c-1.29 14.351-2.05 27.941-2.05 40v197.629h76.38v-373.489h-45.11c-13.33 0-21.79 3.332-30.26 14.352l-176.1 222.508c1.02-13.071 1.79-25.629 1.79-36.66v-200.2h-76.39v373.489h45.62c14.88 0 19.23-1.789 28.71-13.329"/><path id="path4484" d="m3954.41 869.141c-66.64 0-105.61-45.121-105.61-119.2 0-74.851 38.97-119.203 105.61-119.203 66.14 0 105.11 44.352 105.11 119.203 0 74.079-38.97 119.2-105.11 119.2zm0-310.18c-116.38 0-194.31 83.059-194.31 190.98 0 107.93 77.93 190.719 194.31 190.719 116.13 0 193.81-83.308 193.81-190.719 0-107.921-77.68-190.98-193.81-190.98"/><path id="path4486" d="m4242.98 936.559h72.82c15.11 0 25.62-7.43 28.71-18.707l51.27-194.821c3.33-12.562 7.16-27.172 8.96-42.82 3.34 16.16 7.7 30.258 11.54 42.82l60.49 194.821c3.09 9.476 13.85 18.707 28.21 18.707h25.63c15.13 0 24.86-7.18 28.71-18.707l59.99-194.821c3.84-12.051 8.2-25.379 11.27-40.761 2.82 15.121 5.65 28.71 8.72 40.761l51.27 194.821c2.82 10 13.84 18.707 28.19 18.707h68.2l-115.36-373.489h-78.44l-70.24 231.481c-2.31 7.179-5.13 15.89-7.44 25.371-2.3-9.481-5.12-18.192-7.43-25.371l-71.26-231.481h-78.45l-115.36 373.489"/><path id="path4488" d="m5029.88 632.289h138.42v-69.219h-225.07v373.489h86.65v-304.27"/><path id="path4490" d="m5592.75 936.559v-66.649h-153.3v-87.16h117.4v-64.078h-117.4v-88.953h153.3v-66.649h-240.46v373.489h240.46"/><path id="path4492" d="m5919.78 869.91h-57.94v-240.191h57.94c66.13 0 105.1 45.633 105.1 120.222 0 74.079-38.97 119.969-105.1 119.969zm0-306.84h-145.1v373.489h145.1c116.12 0 193.79-79.207 193.79-186.618 0-107.921-77.67-186.871-193.79-186.871"/><path id="path4494" d="m6501.61 636.891v56.648h-36.92c-11.02 0-17.43 6.422-17.43 15.391v47.679h132.79v-157.648c-38.2-27.941-82.03-40-143.04-40-109.2 0-190.73 81.531-190.73 190.98 0 111.52 76.91 190.719 197.39 190.719 62.56 0 108.95-21.531 138.94-50.238l-25.11-38.192c-4.88-7.179-11.55-11.539-19.5-11.539-5.11 0-10.5 1.789-15.89 5.129-27.43 16.41-46.65 23.321-81.51 23.321-64.61 0-105.62-47.68-105.62-119.2 0-78.949 46.15-124.32 108.69-124.32 23.84 0 41.53 4.348 57.94 11.27"/><path id="path4496" d="m6995.76 936.559v-66.649h-153.29v-87.16h117.41v-64.078h-117.41v-88.953h153.29v-66.649h-240.45v373.489h240.45"/></g></g></g></svg>
